# xmcd CD database file
#
# Track frame offsets:
#	150
#	15376
#	35134
#	45863
#	63638
#	75653
#	96505
#	115554
#	126882
#	143330
#	157554
#	170117
#	185679
#
# Disc length: 2615 seconds
#
# Revision: 0
# Processed by: cddbd v1.5.2PL0 Copyright (c) Steve Scherf et al.
# Submitted via: CDex 1.70beta2
#
DISCID=9f0a350d
DTITLE=Seven Bucks a Week - From the dirt road to blacktop
DYEAR=1900
DGENRE=Country
TTITLE0=Blow my Mind
TTITLE1=Southside of Heaven
TTITLE2=Dollar a Day
TTITLE3=The lonely Fields
TTITLE4=It's allright to be a Redneck
TTITLE5=Seminole Wind
TTITLE6=1952 Vincent Black Lightning
TTITLE7=Highway Patrol
TTITLE8=Wicked twisted Road
TTITLE9=WhiteFrightliner Blues
TTITLE10=Crazy Eddies last Hurrah
TTITLE11=Chicken Fried
TTITLE12=Down the Road
EXTD=
EXTT0=
EXTT1=
EXTT2=
EXTT3=
EXTT4=
EXTT5=
EXTT6=
EXTT7=
EXTT8=
EXTT9=
EXTT10=
EXTT11=
EXTT12=
PLAYORDER=
